<?xml version="1.0" standalone="no"?><!-- Generator: Gravit.io --><svg xmlns="http://www.w3.org/2000/svg" xmlns:xlink="http://www.w3.org/1999/xlink" style="isolation:isolate" viewBox="0 0 500 500" width="500" height="500"><defs><clipPath id="_clipPath_CBQrpbjrFpzrEldpSIhsyM2eozl4zQTh"><rect width="500" height="500"/></clipPath></defs><g clip-path="url(#_clipPath_CBQrpbjrFpzrEldpSIhsyM2eozl4zQTh)"><g id="icon"><rect x="73.223" y="73.223" width="353.553" height="353.553" transform="matrix(0.707,0.707,-0.707,0.707,250,-103.553)" fill="rgb(53,75,163)"/><clipPath id="_clipPath_eLIyiP48TwrRF7BjnW0Ck24isT0Thans"><rect x="73.223" y="73.223" width="353.553" height="353.553" transform="matrix(0.707,0.707,-0.707,0.707,250,-103.553)" fill="rgb(53,75,163)"/></clipPath><g clip-path="url(#_clipPath_eLIyiP48TwrRF7BjnW0Ck24isT0Thans)"><path d=" M 388.046 249.78 L 457.364 319.098 L 423.466 352.996 L 354.148 283.678 L 328.9 308.926 L 328.9 479.71 L 280.961 479.71 L 280.961 164.108 L 217.042 164.108 L 217.042 479.71 L 169.102 479.71 L 169.102 164.108 L 54.247 164.108 L 54.247 125.158 L 280.961 125.158 L 280.961 24.285 L 328.9 24.285 L 328.9 253.806 L 427.681 155.026 L 455.241 182.585 L 388.046 249.78 Z " fill="rgb(255,255,255)"/></g></g></g></svg>