<?xml version="1.0" standalone="no"?><!-- Generator: Gravit.io --><svg xmlns="http://www.w3.org/2000/svg" xmlns:xlink="http://www.w3.org/1999/xlink" style="isolation:isolate" viewBox="0 0 2002.989 500" width="2002.989" height="500"><defs><clipPath id="_clipPath_2BzZhWpBi8okbOggPh6Co52iwsF3A5PL"><rect width="2002.989" height="500"/></clipPath></defs><g clip-path="url(#_clipPath_2BzZhWpBi8okbOggPh6Co52iwsF3A5PL)"><g id="icon"><rect x="73.223" y="73.223" width="353.553" height="353.553" transform="matrix(0.707,0.707,-0.707,0.707,250,-103.553)" fill="rgb(53,75,163)"/><clipPath id="_clipPath_jRD80FnwBExzzRWVMKpMxM1PbiZFaAAY"><rect x="73.223" y="73.223" width="353.553" height="353.553" transform="matrix(0.707,0.707,-0.707,0.707,250,-103.553)" fill="rgb(53,75,163)"/></clipPath><g clip-path="url(#_clipPath_jRD80FnwBExzzRWVMKpMxM1PbiZFaAAY)"><path d=" M 388.046 249.78 L 457.364 319.098 L 423.466 352.996 L 354.148 283.678 L 328.9 308.926 L 328.9 479.71 L 280.961 479.71 L 280.961 164.108 L 217.042 164.108 L 217.042 479.71 L 169.102 479.71 L 169.102 164.108 L 54.247 164.108 L 54.247 125.158 L 280.961 125.158 L 280.961 24.285 L 328.9 24.285 L 328.9 253.806 L 427.681 155.026 L 455.241 182.585 L 388.046 249.78 Z " fill="rgb(255,255,255)"/></g></g><path d=" M 1923.938 355.874 L 1850.993 269.344 L 1818.212 303.011 L 1818.212 355.874 L 1779.82 355.874 L 1779.82 149.147 L 1818.212 149.147 L 1818.212 255.168 L 1920.394 149.147 L 1963.511 149.147 L 1876.686 241.583 L 1968.827 355.874 L 1923.938 355.874 Z  M 669.696 355.874 L 669.696 181.632 L 601.181 181.632 L 601.181 149.147 L 776.604 149.147 L 776.604 181.632 L 708.089 181.632 L 708.089 355.874 L 669.696 355.874 Z  M 862.248 196.399 L 862.248 196.399 Q 897.096 196.399 915.554 213.084 L 915.554 213.084 L 915.554 213.084 Q 934.011 229.77 934.011 263.437 L 934.011 263.437 L 934.011 355.874 L 899.163 355.874 L 899.163 336.678 L 899.163 336.678 Q 892.371 347.014 879.82 352.477 L 879.82 352.477 L 879.82 352.477 Q 867.268 357.941 849.549 357.941 L 849.549 357.941 L 849.549 357.941 Q 831.829 357.941 818.54 351.887 L 818.54 351.887 L 818.54 351.887 Q 805.25 345.833 798.015 335.053 L 798.015 335.053 L 798.015 335.053 Q 790.779 324.274 790.779 310.689 L 790.779 310.689 L 790.779 310.689 Q 790.779 289.426 806.579 276.579 L 806.579 276.579 L 806.579 276.579 Q 822.379 263.733 856.341 263.733 L 856.341 263.733 L 897.096 263.733 L 897.096 261.37 L 897.096 261.37 Q 897.096 244.832 887.203 235.972 L 887.203 235.972 L 887.203 235.972 Q 877.309 227.112 857.818 227.112 L 857.818 227.112 L 857.818 227.112 Q 844.528 227.112 831.682 231.247 L 831.682 231.247 L 831.682 231.247 Q 818.835 235.381 809.975 242.765 L 809.975 242.765 L 795.505 215.89 L 795.505 215.89 Q 807.908 206.44 825.332 201.419 L 825.332 201.419 L 825.332 201.419 Q 842.756 196.399 862.248 196.399 L 862.248 196.399 Z  M 857.227 331.066 L 857.227 331.066 Q 871.107 331.066 881.887 324.717 L 881.887 324.717 L 881.887 324.717 Q 892.666 318.368 897.096 306.555 L 897.096 306.555 L 897.096 288.244 L 858.999 288.244 L 858.999 288.244 Q 827.104 288.244 827.104 309.212 L 827.104 309.212 L 827.104 309.212 Q 827.104 319.253 835.078 325.16 L 835.078 325.16 L 835.078 325.16 Q 843.052 331.066 857.227 331.066 L 857.227 331.066 Z  M 1045.349 164.504 L 1045.349 164.504 Q 1022.018 164.504 1022.018 189.902 L 1022.018 189.902 L 1022.018 199.352 L 1065.431 199.352 L 1065.431 228.884 L 1023.199 228.884 L 1023.199 355.874 L 986.284 355.874 L 986.284 228.884 L 960.295 228.884 L 960.295 199.352 L 986.284 199.352 L 986.284 189.311 L 986.284 189.311 Q 986.284 163.913 1001.05 149.295 L 1001.05 149.295 L 1001.05 149.295 Q 1015.816 134.676 1042.691 134.676 L 1042.691 134.676 L 1042.691 134.676 Q 1063.954 134.676 1076.062 143.24 L 1076.062 143.24 L 1065.726 171.001 L 1065.726 171.001 Q 1056.276 164.504 1045.349 164.504 L 1045.349 164.504 Z  M 1073.995 415.234 L 1073.995 415.234 Q 1050.664 415.234 1038.556 406.079 L 1038.556 406.079 L 1049.188 378.614 L 1049.188 378.614 Q 1057.457 384.815 1070.746 384.815 L 1070.746 384.815 L 1070.746 384.815 Q 1081.083 384.815 1086.546 378.466 L 1086.546 378.466 L 1086.546 378.466 Q 1092.01 372.116 1092.01 359.713 L 1092.01 359.713 L 1092.01 198.171 L 1128.925 198.171 L 1128.925 358.827 L 1128.925 358.827 Q 1128.925 385.111 1114.454 400.172 L 1114.454 400.172 L 1114.454 400.172 Q 1099.984 415.234 1073.995 415.234 L 1073.995 415.234 Z  M 1110.32 172.182 L 1110.32 172.182 Q 1100.279 172.182 1093.486 165.833 L 1093.486 165.833 L 1093.486 165.833 Q 1086.694 159.483 1086.694 150.033 L 1086.694 150.033 L 1086.694 150.033 Q 1086.694 140.582 1093.486 134.233 L 1093.486 134.233 L 1093.486 134.233 Q 1100.279 127.884 1110.32 127.884 L 1110.32 127.884 L 1110.32 127.884 Q 1120.361 127.884 1127.153 133.938 L 1127.153 133.938 L 1127.153 133.938 Q 1133.946 139.992 1133.946 149.147 L 1133.946 149.147 L 1133.946 149.147 Q 1133.946 158.893 1127.301 165.537 L 1127.301 165.537 L 1127.301 165.537 Q 1120.656 172.182 1110.32 172.182 L 1110.32 172.182 Z  M 1248.236 357.941 L 1248.236 357.941 Q 1224.315 357.941 1205.119 347.605 L 1205.119 347.605 L 1205.119 347.605 Q 1185.923 337.268 1175.144 318.81 L 1175.144 318.81 L 1175.144 318.81 Q 1164.364 300.353 1164.364 277.022 L 1164.364 277.022 L 1164.364 277.022 Q 1164.364 253.692 1175.144 235.381 L 1175.144 235.381 L 1175.144 235.381 Q 1185.923 217.071 1205.119 206.735 L 1205.119 206.735 L 1205.119 206.735 Q 1224.315 196.399 1248.236 196.399 L 1248.236 196.399 L 1248.236 196.399 Q 1272.453 196.399 1291.649 206.735 L 1291.649 206.735 L 1291.649 206.735 Q 1310.845 217.071 1321.624 235.381 L 1321.624 235.381 L 1321.624 235.381 Q 1332.404 253.692 1332.404 277.022 L 1332.404 277.022 L 1332.404 277.022 Q 1332.404 300.353 1321.624 318.81 L 1321.624 318.81 L 1321.624 318.81 Q 1310.845 337.268 1291.649 347.605 L 1291.649 347.605 L 1291.649 347.605 Q 1272.453 357.941 1248.236 357.941 L 1248.236 357.941 Z  M 1248.236 326.341 L 1248.236 326.341 Q 1268.614 326.341 1281.903 312.756 L 1281.903 312.756 L 1281.903 312.756 Q 1295.193 299.171 1295.193 277.022 L 1295.193 277.022 L 1295.193 277.022 Q 1295.193 254.873 1281.903 241.288 L 1281.903 241.288 L 1281.903 241.288 Q 1268.614 227.703 1248.236 227.703 L 1248.236 227.703 L 1248.236 227.703 Q 1227.859 227.703 1214.717 241.288 L 1214.717 241.288 L 1214.717 241.288 Q 1201.575 254.873 1201.575 277.022 L 1201.575 277.022 L 1201.575 277.022 Q 1201.575 299.171 1214.717 312.756 L 1214.717 312.756 L 1214.717 312.756 Q 1227.859 326.341 1248.236 326.341 L 1248.236 326.341 Z  M 1402.986 221.206 L 1402.986 221.206 Q 1418.934 196.399 1459.098 196.399 L 1459.098 196.399 L 1459.098 231.542 L 1459.098 231.542 Q 1454.372 230.656 1450.533 230.656 L 1450.533 230.656 L 1450.533 230.656 Q 1428.975 230.656 1416.866 243.208 L 1416.866 243.208 L 1416.866 243.208 Q 1404.758 255.759 1404.758 279.385 L 1404.758 279.385 L 1404.758 355.874 L 1367.843 355.874 L 1367.843 198.171 L 1402.986 198.171 L 1402.986 221.206 Z  M 1609.418 136.743 L 1646.333 136.743 L 1646.333 355.874 L 1610.894 355.874 L 1610.894 335.496 L 1610.894 335.496 Q 1601.739 346.719 1588.302 352.33 L 1588.302 352.33 L 1588.302 352.33 Q 1574.865 357.941 1558.622 357.941 L 1558.622 357.941 L 1558.622 357.941 Q 1535.882 357.941 1517.719 347.9 L 1517.719 347.9 L 1517.719 347.9 Q 1499.557 337.859 1489.221 319.401 L 1489.221 319.401 L 1489.221 319.401 Q 1478.884 300.943 1478.884 277.022 L 1478.884 277.022 L 1478.884 277.022 Q 1478.884 253.101 1489.221 234.791 L 1489.221 234.791 L 1489.221 234.791 Q 1499.557 216.481 1517.719 206.44 L 1517.719 206.44 L 1517.719 206.44 Q 1535.882 196.399 1558.622 196.399 L 1558.622 196.399 L 1558.622 196.399 Q 1574.274 196.399 1587.268 201.715 L 1587.268 201.715 L 1587.268 201.715 Q 1600.262 207.03 1609.418 217.662 L 1609.418 217.662 L 1609.418 136.743 Z  M 1563.052 326.341 L 1563.052 326.341 Q 1576.341 326.341 1586.973 320.287 L 1586.973 320.287 L 1586.973 320.287 Q 1597.605 314.233 1603.806 303.011 L 1603.806 303.011 L 1603.806 303.011 Q 1610.008 291.788 1610.008 277.022 L 1610.008 277.022 L 1610.008 277.022 Q 1610.008 262.256 1603.806 251.034 L 1603.806 251.034 L 1603.806 251.034 Q 1597.605 239.811 1586.973 233.757 L 1586.973 233.757 L 1586.973 233.757 Q 1576.341 227.703 1563.052 227.703 L 1563.052 227.703 L 1563.052 227.703 Q 1549.762 227.703 1539.13 233.757 L 1539.13 233.757 L 1539.13 233.757 Q 1528.499 239.811 1522.297 251.034 L 1522.297 251.034 L 1522.297 251.034 Q 1516.095 262.256 1516.095 277.022 L 1516.095 277.022 L 1516.095 277.022 Q 1516.095 291.788 1522.297 303.011 L 1522.297 303.011 L 1522.297 303.011 Q 1528.499 314.233 1539.13 320.287 L 1539.13 320.287 L 1539.13 320.287 Q 1549.762 326.341 1563.052 326.341 L 1563.052 326.341 Z " fill-rule="evenodd" fill="rgb(51,51,51)"/></g></svg>